<?xml version="1.0" encoding="utf-8"?>
<!-- Generator: Adobe Illustrator 21.0.0, SVG Export Plug-In . SVG Version: 6.00 Build 0)  -->
<svg version="1.1" id="Capa_1" xmlns="http://www.w3.org/2000/svg" xmlns:xlink="http://www.w3.org/1999/xlink" x="0px" y="0px"
	 viewBox="0 0 195.7 59.5" style="enable-background:new 0 0 195.7 59.5;" xml:space="preserve">
<style type="text/css">
	.st0{fill:#FFFFFF;}
</style>
<g>
	<path class="st0" d="M18.6,2.5l8.5,0l10.8,25.8l-9.3,0l-1.4-3.4l-9,0l-1.3,3.4l-9.2,0L18.6,2.5z M25.1,18.7l-2.3-6.2l-2.3,6.2
		L25.1,18.7z"/>
	<polygon class="st0" points="37.5,8.3 46.2,8.3 49.4,18.3 52.7,8.3 61.3,8.3 53.2,28.4 45.5,28.4 	"/>
	<path class="st0" d="M71.6,28.7c-1.6,0-3.1-0.3-4.5-0.8c-1.4-0.5-2.5-1.2-3.5-2.1c-1-0.9-1.7-2-2.2-3.3c-0.5-1.3-0.8-2.7-0.8-4.2
		v-0.1c0-1.5,0.3-2.9,0.8-4.2c0.5-1.3,1.2-2.4,2.1-3.3c0.9-0.9,2-1.7,3.2-2.2c1.3-0.5,2.6-0.8,4.2-0.8c1.8,0,3.3,0.3,4.6,0.9
		c1.3,0.6,2.4,1.4,3.2,2.4c0.9,1,1.5,2.2,1.9,3.5c0.4,1.3,0.6,2.8,0.6,4.3v0.7c0,0.2,0,0.5,0,0.7l-12.9,0c0.3,0.9,0.8,1.5,1.4,2
		c0.7,0.5,1.4,0.7,2.3,0.7c0.8,0,1.5-0.2,2.1-0.5c0.6-0.3,1.3-0.9,2-1.5l4.5,3.6c-1,1.3-2.2,2.3-3.7,3.1
		C75.6,28.3,73.7,28.7,71.6,28.7 M73.7,16.5c-0.1-1-0.4-1.7-0.9-2.2c-0.5-0.5-1.1-0.8-1.9-0.8c-0.7,0-1.3,0.3-1.8,0.8
		c-0.5,0.5-0.8,1.3-0.9,2.2L73.7,16.5z"/>
	<path class="st0" d="M83.1,8.3l8.3,0v2.7c0.6-0.8,1.4-1.6,2.5-2.2c1-0.6,2.2-1,3.6-1c1.4,0,2.5,0.3,3.6,0.8c1,0.6,1.8,1.4,2.3,2.5
		c0.9-1,1.8-1.7,2.9-2.4c1.1-0.6,2.4-0.9,3.9-0.9c2.1,0,3.8,0.6,5.1,1.9c1.2,1.3,1.8,3.1,1.8,5.3l0,13.2l-8.3,0V17.7
		c0-0.9-0.2-1.5-0.6-2c-0.4-0.5-0.9-0.7-1.6-0.7c-0.6,0-1.1,0.2-1.6,0.7c-0.5,0.5-0.7,1.1-0.7,2l0,10.6l-8.3,0V17.7
		c0-0.9-0.2-1.5-0.6-2c-0.4-0.5-0.9-0.7-1.6-0.7c-0.6,0-1.1,0.2-1.6,0.7c-0.5,0.5-0.7,1.1-0.7,2l0,10.6l-8.3,0L83.1,8.3z"/>
	<path class="st0" d="M125.2,28.7c-1,0-1.8-0.1-2.6-0.4c-0.8-0.3-1.5-0.7-2.1-1.2c-0.6-0.5-1-1.2-1.4-1.9c-0.3-0.8-0.5-1.6-0.5-2.6
		v-0.1c0-2,0.7-3.5,2-4.6c1.4-1.1,3.2-1.6,5.6-1.6c0.4,0,0.9,0,1.3,0.1c0.5,0,0.9,0.1,1.3,0.2c0.4,0.1,0.8,0.2,1.2,0.2
		c0.4,0.1,0.7,0.2,0.9,0.3v-0.3c0-0.9-0.3-1.6-0.9-2.1c-0.6-0.5-1.5-0.8-2.8-0.8c-1,0-2,0.1-2.9,0.3c-0.9,0.2-1.8,0.5-2.7,0.8
		l-1.5-5.5c1.2-0.4,2.4-0.8,3.8-1.1c1.3-0.3,2.9-0.4,4.7-0.4c2,0,3.8,0.2,5.1,0.6c1.4,0.4,2.5,1.1,3.3,2c0.8,0.8,1.3,1.6,1.6,2.6
		c0.3,1,0.5,2.2,0.5,3.7v11.4l-8.3,0v-2c-0.7,0.8-1.5,1.4-2.5,1.8C127.5,28.5,126.4,28.7,125.2,28.7 M128.5,23.9
		c0.7,0,1.3-0.3,1.8-0.8c0.5-0.5,0.7-1.3,0.7-2.3V20c-0.2-0.1-0.5-0.2-0.9-0.2c-0.3-0.1-0.7-0.1-1-0.1c-0.8,0-1.5,0.2-1.9,0.6
		c-0.4,0.4-0.7,1-0.7,1.6V22c0,0.6,0.2,1.1,0.5,1.4C127.5,23.8,127.9,23.9,128.5,23.9"/>
	<path class="st0" d="M141.6,8.3l8.3,0v4c0.6-1.3,1.3-2.4,2.3-3.2c1-0.8,2.3-1.2,4-1.1v8.8h-0.9c-1.8,0-3.1,0.5-4,1.5
		c-0.9,1-1.4,2.6-1.4,4.9v5.1l-8.3,0V8.3z"/>
	<path class="st0" d="M157.6,8.3l8.3,0l0,20l-8.3,0V8.3z M162.2,0l8.1,2.1l-6,4.9l-5.6,0L162.2,0z"/>
	<path class="st0" d="M174.3,28.7c-1,0-1.8-0.1-2.6-0.4c-0.8-0.3-1.5-0.7-2.1-1.2c-0.6-0.5-1-1.2-1.4-1.9c-0.3-0.8-0.5-1.6-0.5-2.6
		v-0.1c0-2,0.7-3.5,2-4.6c1.4-1.1,3.2-1.6,5.6-1.6c0.4,0,0.9,0,1.3,0.1c0.5,0,0.9,0.1,1.3,0.2c0.4,0.1,0.8,0.2,1.2,0.2
		c0.4,0.1,0.7,0.2,0.9,0.3v-0.3c0-0.9-0.3-1.6-0.9-2.1c-0.6-0.5-1.5-0.8-2.8-0.8c-1,0-2,0.1-2.9,0.3c-0.9,0.2-1.8,0.5-2.7,0.8
		l-1.5-5.5c1.2-0.4,2.4-0.8,3.8-1.1c1.3-0.3,2.9-0.4,4.7-0.4c2,0,3.8,0.2,5.1,0.6c1.4,0.4,2.5,1.1,3.3,2c0.8,0.8,1.3,1.6,1.6,2.6
		c0.3,1,0.5,2.2,0.5,3.7v11.4l-8.3,0v-2c-0.7,0.8-1.5,1.4-2.5,1.8S175.5,28.7,174.3,28.7 M177.6,23.9c0.7,0,1.3-0.3,1.8-0.8
		c0.5-0.5,0.7-1.3,0.7-2.3l0-0.8c-0.2-0.1-0.5-0.2-0.9-0.2c-0.3-0.1-0.7-0.1-1-0.1c-0.8,0-1.5,0.2-1.9,0.6c-0.4,0.4-0.7,1-0.7,1.6
		V22c0,0.6,0.2,1.1,0.5,1.4C176.6,23.8,177.1,23.9,177.6,23.9"/>
	<path class="st0" d="M0,33.3l11.5,0c1.7,0,3.3,0.2,4.7,0.6c1.4,0.4,2.6,0.9,3.6,1.7c1,0.8,1.8,1.7,2.3,2.9c0.6,1.1,0.8,2.5,0.8,4
		v0.1c0,1.5-0.3,2.9-0.8,4.1c-0.6,1.2-1.4,2.2-2.4,3c-1,0.8-2.3,1.4-3.7,1.8c-1.4,0.4-3,0.6-4.7,0.6H8.6l0,7l-8.6,0L0,33.3z
		 M10.9,45.9c1.1,0,2-0.2,2.7-0.7c0.7-0.5,1-1.2,1-2.1V43c0-0.9-0.3-1.6-1-2.1c-0.6-0.5-1.5-0.7-2.7-0.7H8.6l0,5.7H10.9z"/>
	<path class="st0" d="M31.3,59.4c-2.1,0-3.8-0.6-5-1.9c-1.2-1.3-1.8-3.1-1.8-5.3l0-13.2l8.3,0l0,10.5c0,0.9,0.2,1.5,0.7,2
		c0.4,0.5,1,0.7,1.6,0.7c0.6,0,1.2-0.2,1.7-0.7c0.5-0.5,0.7-1.1,0.7-2l0-10.5l8.3,0l0,20h-8.3l0-2.7c-0.6,0.8-1.5,1.6-2.5,2.2
		C33.9,59.1,32.7,59.4,31.3,59.4"/>
	<path class="st0" d="M62.5,59.4c-1.5,0-2.7-0.3-3.7-0.8c-0.9-0.6-1.7-1.2-2.3-1.9l0,2.3h-8.3l0-26.7l8.3,0l0,9.2
		c0.3-0.4,0.7-0.7,1.1-1.1c0.4-0.4,0.8-0.7,1.3-0.9c0.5-0.3,1-0.5,1.6-0.7c0.6-0.2,1.3-0.3,2-0.3c1.2,0,2.3,0.2,3.4,0.8
		c1.1,0.5,2,1.2,2.7,2.1c0.8,0.9,1.4,2,1.8,3.3c0.4,1.3,0.7,2.7,0.7,4.2v0.1c0,1.6-0.2,3-0.7,4.3c-0.4,1.3-1.1,2.4-1.8,3.3
		c-0.8,0.9-1.7,1.6-2.7,2.1C64.8,59.2,63.7,59.4,62.5,59.4 M59.7,52.6c1,0,1.7-0.3,2.4-1c0.6-0.7,1-1.5,1-2.6v-0.1
		c0-1-0.3-1.9-1-2.6c-0.6-0.7-1.4-1-2.4-1c-1,0-1.7,0.3-2.4,1c-0.6,0.7-1,1.5-1,2.6V49c0,0.5,0.1,1,0.3,1.4c0.2,0.4,0.4,0.8,0.7,1.2
		c0.3,0.3,0.6,0.6,1,0.8C58.7,52.5,59.2,52.6,59.7,52.6"/>
	<rect x="73" y="32.2" class="st0" width="8.3" height="26.7"/>
	<path class="st0" d="M83.8,32.2l8.6,0v5.3l-8.6,0L83.8,32.2z M84,39h8.3l0,20H84L84,39z"/>
	<path class="st0" d="M104.7,59.5c-1.5,0-2.9-0.3-4.2-0.8c-1.3-0.6-2.4-1.3-3.3-2.3c-0.9-1-1.7-2.1-2.2-3.3c-0.5-1.3-0.8-2.6-0.8-4
		V49c0-1.4,0.3-2.7,0.8-4c0.5-1.3,1.3-2.4,2.2-3.4c1-1,2.1-1.7,3.4-2.3c1.3-0.6,2.8-0.8,4.5-0.8c2.2,0,4.1,0.5,5.6,1.5
		c1.5,1,2.7,2.3,3.4,4l-6,3.4c-0.3-0.6-0.7-1.1-1.2-1.5c-0.5-0.4-1-0.5-1.7-0.5c-0.9,0-1.6,0.3-2.2,1c-0.6,0.7-0.9,1.5-0.9,2.5V49
		c0,1.1,0.3,1.9,0.9,2.6c0.6,0.7,1.3,1,2.1,1c0.7,0,1.3-0.2,1.8-0.5c0.5-0.4,0.9-0.8,1.3-1.5l6,3.4c-0.9,1.7-2.1,3-3.7,4
		C109.1,59,107.1,59.5,104.7,59.5"/>
	<path class="st0" d="M115.5,32.2h8.6v5.3l-8.6,0V32.2z M115.7,39h8.3l0,20h-8.3L115.7,39z"/>
	<path class="st0" d="M134.6,59.4c-1.2,0-2.3-0.3-3.4-0.8c-1-0.5-1.9-1.2-2.7-2.1c-0.8-0.9-1.4-2-1.8-3.3c-0.4-1.3-0.7-2.7-0.7-4.2
		V49c0-1.6,0.2-3,0.7-4.3c0.5-1.3,1.1-2.4,1.8-3.3c0.8-0.9,1.7-1.6,2.7-2.1c1-0.5,2.1-0.8,3.3-0.8c1.5,0,2.7,0.3,3.7,0.8
		c0.9,0.6,1.7,1.2,2.3,1.9v-9l8.3,0l0,26.7l-8.3,0v-2.5c-0.3,0.4-0.7,0.7-1.1,1.1c-0.4,0.4-0.8,0.7-1.3,0.9c-0.5,0.3-1,0.5-1.6,0.7
		C136,59.3,135.3,59.4,134.6,59.4 M137.3,52.6c1,0,1.7-0.3,2.4-1c0.6-0.7,1-1.5,1-2.6v-0.1c0-0.5-0.1-1-0.3-1.4
		c-0.2-0.4-0.4-0.8-0.7-1.2c-0.3-0.3-0.6-0.6-1.1-0.8c-0.4-0.2-0.9-0.3-1.3-0.3c-1,0-1.7,0.3-2.4,1c-0.6,0.7-1,1.5-1,2.6V49
		c0,1,0.3,1.9,1,2.6C135.6,52.2,136.4,52.6,137.3,52.6"/>
	<path class="st0" d="M157.1,59.4c-1,0-1.8-0.1-2.6-0.4c-0.8-0.3-1.5-0.7-2.1-1.2c-0.6-0.5-1-1.2-1.4-1.9c-0.3-0.8-0.5-1.6-0.5-2.6
		v-0.1c0-2,0.7-3.5,2-4.6c1.4-1.1,3.2-1.6,5.6-1.6c0.4,0,0.9,0,1.3,0.1c0.5,0,0.9,0.1,1.3,0.2c0.4,0.1,0.8,0.2,1.2,0.2
		c0.4,0.1,0.7,0.2,0.9,0.3v-0.3c0-0.9-0.3-1.6-0.9-2.1c-0.6-0.5-1.5-0.7-2.8-0.7c-1,0-2,0.1-2.9,0.3c-0.9,0.2-1.8,0.5-2.7,0.8
		l-1.5-5.5c1.2-0.4,2.4-0.8,3.8-1.1c1.3-0.3,2.9-0.4,4.7-0.4c2,0,3.8,0.2,5.1,0.6c1.4,0.4,2.5,1.1,3.3,2c0.8,0.8,1.3,1.6,1.6,2.6
		c0.3,1,0.5,2.2,0.5,3.7l0,11.4l-8.3,0l0-2c-0.7,0.8-1.5,1.4-2.5,1.8C159.4,59.2,158.3,59.4,157.1,59.4 M160.4,54.6
		c0.7,0,1.3-0.3,1.8-0.8c0.5-0.5,0.7-1.3,0.7-2.3v-0.8c-0.2-0.1-0.5-0.2-0.9-0.2c-0.3-0.1-0.7-0.1-1-0.1c-0.8,0-1.5,0.2-1.9,0.6
		c-0.4,0.4-0.7,1-0.7,1.6v0.1c0,0.6,0.2,1.1,0.5,1.4C159.4,54.4,159.8,54.6,160.4,54.6"/>
	<path class="st0" d="M181.5,59.4c-1.2,0-2.3-0.3-3.4-0.8c-1-0.5-1.9-1.2-2.7-2.1c-0.8-0.9-1.4-2-1.8-3.3c-0.4-1.3-0.7-2.7-0.7-4.2
		V49c0-1.6,0.2-3,0.7-4.3c0.5-1.3,1.1-2.4,1.8-3.3c0.8-0.9,1.7-1.6,2.7-2.1c1-0.5,2.1-0.8,3.3-0.8c1.5,0,2.7,0.3,3.7,0.8
		c0.9,0.6,1.7,1.2,2.3,1.9v-9h8.3l0,26.7l-8.3,0v-2.5c-0.3,0.4-0.7,0.7-1.1,1.1c-0.4,0.4-0.8,0.7-1.3,0.9c-0.5,0.3-1,0.5-1.6,0.7
		C182.9,59.3,182.2,59.4,181.5,59.4 M184.3,52.6c1,0,1.7-0.3,2.4-1c0.6-0.7,1-1.5,1-2.6v-0.1c0-0.5-0.1-1-0.3-1.4
		c-0.2-0.4-0.4-0.8-0.7-1.2s-0.6-0.6-1.1-0.8c-0.4-0.2-0.9-0.3-1.3-0.3c-1,0-1.7,0.3-2.4,1c-0.6,0.7-1,1.5-1,2.6V49
		c0,1,0.3,1.9,1,2.6C182.5,52.2,183.3,52.6,184.3,52.6"/>
</g>
</svg>
